# xmcd
#
# Track frame offsets: 
#        150
#        20533
#        40699
#        61190
#        76614
#        93067
#        107953
#        126039
#        142253
#        160950
#
# Disc length: 2419 seconds
#
# Revision: 0
# Processed by: cddbd v1.5.2PL0 Copyright (c) Steve Scherf et al.
# Submitted via: ExactAudioCopy v1.0b4
#
DISCID=7709710a
DTITLE=Eliza Neals - No Frogs for Snakes
DYEAR=2008
DGENRE=Blues Rock
TTITLE0=Back to Life
TTITLE1=About Her
TTITLE2=Save Me From The Fire
TTITLE3=Snakes
TTITLE4=You Can Bet
TTITLE5=Paralyzed
TTITLE6=Let Go
TTITLE7=Leaving Detroit
TTITLE8=Southern Man
TTITLE9=Forgotten Town
EXTD=
EXTT0=
EXTT1=
EXTT2=
EXTT3=
EXTT4=
EXTT5=
EXTT6=
EXTT7=
EXTT8=
EXTT9=
PLAYORDER=
